<?xml version="1.0" encoding="UTF-8"?>
<svg version="1.1" viewBox="0 0 2048 1108" width="1280" height="1280" xmlns="http://www.w3.org/2000/svg">
<path transform="translate(0)" d="m0 0h2048v1108h-2048z" fill="#FDFDFD"/>
<path transform="translate(957,125)" d="m0 0h18l26 3 22 5 24 8 20 8 26 7 25 10 20 11 14 10 14 12 17 17 13 17 12 19 13 27 10 30 6 29 3 23 1 23h23l11 3 10 4 8 6 9 10 3 6v14l3 6 4 5 2 6v9l-8 12v17l-7 6-7 3-9 1-5-1h-7l-8 3-2 12-2 1v16l-4 109-1 26-1 43-2 53-2 58-1 25-1 9-8 4-15 5-19 4-7 1h-38l-4-1-3 11-3 16v16h2l6 8 12 14 8 10 11 14 13 15 14 14 17 12 19 12-2 4-31 31-2 3h-2v2h-10l-38-3-4-2 9-4 21-9 3-2h3v-2l6-5h2l-2-10-3-8-3-1-3 6-6-1-14-10-9-6v-2l-4-2-13-10-14-12-14-13-9-11-10-13-6-11-3-14v-25l1-4-8 7-9 10-11 13-11 16-9 15-6 12-5 13-7 23-3 13-1 1h-7l-2 6-2 9-1 32-2 1h-95v-2h-47l-1-1-1-36-1-1-11-1-2-9-3-19-5-35-5-24-7-31-6-18-7-15-6-9-6-5-2-1 2 11 1 11v14l-3 24-5 21-8 22-9 21-14 27-9 15-9 1-7 13v3l39 17 9 4 1 2h-102l1-4h2l2-4 11-16 7-10 4-8h2v-4l-17-7 1-6 8-16 10-24 3-7 4-14 4-15 5-24 1-14v-31l-1-13-5-23-3-10-4-8-9-8-11-9-10-9-13-13-11-15-6-11-5-17-2-15-1-20-8-1-10-4-1-9 2-47 3-31 5-29 7-27 9-27 9-17 10-14 8-7 3-3 5-14 1-4-9-11-5-9-3-8v-13l2-4 2-1v-5l-3-4v-9l5-10 6-7 11-7 13-5 6-1h15l2-10 6-19 9-24 14-29 12-20 12-17 14-17 20-20 14-11 21-14 19-10 21-8 17-5 22-4z" fill="#0274A9"/>
<path transform="translate(696,446)" d="m0 0 17 1 15 7 16 2 5 7 11 31 15 31 13 21 12 17 11 13 7 8 12 12 11 9 13 10 21 13 12 7 1 1 1 44 8 4 24 7 12 2 16 1 40 7 5 4-1 4-3 3 1 4 5 4 1 7 14 4 12 2h9l18-3 13-4 20-11 17-13 14-12 6-5 14-16-5-5-13-12-11-9-10-10 2-4 9-10 6-7h6l14-19 10-14 16-21 10-13 11-14 14-17 9-10 5-5 5-4 9-3h10l11 4 5 4 3 3 11 2-2 2v16l-4 109-1 26-1 43-2 53-2 58-1 25-1 9-8 4-15 5-19 4-7 1h-38l-4-1-3 11-3 16v16h2l6 8 12 14 8 10 11 14 13 15 14 14 17 12 19 12-2 4-31 31-2 3h-2v2h-10l-38-3-4-2 9-4 21-9 3-2h3v-2l6-5h2l-2-10-3-8-3-1-3 6-6-1-14-10-9-6v-2l-4-2-13-10-14-12-14-13-9-11-10-13-6-11-3-14v-25l1-4-8 7-9 10-11 13-11 16-9 15-6 12-5 13-7 23-3 13-1 1h-7l-2 6-2 9-1 32-2 1h-95v-2h-47l-1-1-1-36-1-1-11-1-2-9-3-19-5-35-5-24-7-31-6-18-7-15-6-9-6-5-2-1 2 11 1 11v14l-3 24-5 21-8 22-9 21-14 27-9 15-9 1-7 13v3l39 17 9 4 1 2h-102l1-4h2l2-4 11-16 7-10 4-8h2v-4l-17-7 1-6 8-16 10-24 3-7 4-14 4-15 5-24 1-14v-31l-1-13-5-23-3-10-4-8-9-8-11-9-10-9-13-13-11-15-6-11-5-17-2-15-1-20-8-1-10-4-1-9 2-47 3-31 5-29 7-27 9-27 9-17 10-14 8-7z" fill="#FDFDFD"/>
<path transform="translate(1510,108)" d="m0 0 11 3 48 14 8 3 14 24 34 58 28 48 17 29 10 17 17 29 14 24 9 14 4-2 4-3h8l26 7 42 12 7 10 12 21 16 27 14 24-2 3h-2l1 10-6 10-10 7-9 5h-2v22h-10l-4-1 10 18 9 15 15 26 2 4-8 5-26 15-27 16-25 15h-5l-13-6-34-14-14-6 1-8-7 6-4 1h-8l-8-4-4-5-3-9 2-9 3-6v-2l-18-7-5-2h-7l-16 6-19 10-25 17-18 13-38 28-24 16-5 3h-2l4 10 7 18 2 10-14 7-15 5-5 1h-12l-12-4-8-6-10-10-12-16-7-14v-5l3-3 7 1 2 3-3-9-13-26-18-33v-13l6-76 13-170 6-76 6-75 1-10 23-15 24-15 11-7 21-13z" fill="#0274A9"/>
<path transform="translate(565,102)" d="m0 0 6 1 44 22 23 11 15 7-1 6-10 21-13 29-9 19-15 33-16 35-15 33-32 70-30 66-1 5 20 9 29 14 1 3-12 25-12 27-7 14-11 15-26 36-9 13-5-1-21-10-16-8h-2l-2 5-10 12-12 16-11 14-14 18-10 13-9-3-4-4-11-25-19-40-8-15v-2l26-4-1-10-3-19 1-20-17 3-9 1h-27l-20-3-19-5-11-1-14 5-6 7-2 9v31l3 36 4 30v4l-12 6-13 3h-9l-14-3-12-5-10-6-8-8-5-8-3-8-1-4v-9l3-7 6-7 7-3h5l-9-18-2-8v-18l4-9 4-5 7-3h11v-3l-4-2-4-5-2-4v-14l4-8 3-1v-2l10-5-6-7-3-6-24-12-23-11-25-12 1-5 18-37 11-23 6-11 14-13 11-9 12-11 8-7 13-11 13-9 24-14 42-24 26-15 23-13 21-12 24-14 23-13 24-14 28-16 24-14 36-20 21-12 27-16z" fill="#0274A9"/>
<path transform="translate(754,653)" d="m0 0h4l5 14 12 19 9 12 5 5 7 8 9 10 7 8 3 2v2h2l7 8 14 14 7 8 6 5 7 9 5 5v2h2l8 13 8 18 6 18 3 8 6 24 5 27 3 25 2 26 1 20v30l-7 2 1 5 2 9 11 5 25 10 8-1 13-6 10-4 19-8h2v-13l1-9-7-1-1-3 5-25 7-25 3-9 11-29 5-12 6-13 11-23 10-20 12-22 12-20 14-22 12-18 13-21 7-14 2-5 8 1 16 4 13 4 1 1v8l-24 117-3 12v6l15 3 15 2-1 6-4 21v16h2l6 8 12 14 8 10 11 14 13 15 14 14 17 12 19 12-2 4-31 31-2 3h-2v2h-10l-38-3-4-2 9-4 21-9 3-2h3v-2l6-5h2l-2-10-3-8-3-1-3 6-6-1-14-10-9-6v-2l-4-2-13-10-14-12-14-13-9-11-10-13-6-11-3-14v-25l1-4-8 7-9 10-11 13-11 16-9 15-6 12-5 13-7 23-3 13-1 1h-7l-2 6-2 9-1 32-2 1h-95v-2h-47l-1-1-1-36-1-1-11-1-2-9-3-19-5-35-5-24-7-31-6-18-7-15-6-9-6-5-2-1 2 11 1 11v14l-3 24-5 21-8 22-9 21-14 27-9 15-9 1-7 13v3l39 17 9 4 1 2h-102l1-4h2l2-4 11-16 7-10 4-8h2v-4l-17-7 1-6 8-16 10-24 3-7 4-14 4-15 5-24 1-14v-31l-1-13-5-23-3-10-4-8-9-8-11-9-10-9-13-13-11-15-6-11-5-17-2-15v-19h51l25-4 16-5z" fill="#023761"/>
<path transform="translate(352,681)" d="m0 0h11l9 1 9 20 18 38 16 34 18 38 4 10 8 16 15 31 13 28 19 40 13 28 12 25 2 5-1 4-3 3 5 7 19 7 27 9 12 5 15 5v3h-67l-17-1-9-10-8-9-5-1-4-1-10-10-7-8-13-13-7-8-11-12-14-15-9-10-7-8-11-12-9-11-12-13-7-8-10-12-2-1-2 5-10 11-8 10-13 16-11 14-11 13-11 14-11 13-8 10-13 16-8 10-8 3-3 4 18 4 42 11 23 7-1 2h-103l-41-1v-2l5-5 11-13 3-5h2l2-5h2l2-4 1-4-5-1 1-6 3-5 5-9 7-11 6-11 40-70 5-9 4-7 7-11 7-14 2-3-1-9-3-19-1-2-2-13-4-25-8-40-6-21-2-10 27-9 21-5 16-4 18-3z" fill="#023661"/>
<path transform="translate(1019,243)" d="m0 0h10l6 4 13 13 7 10 9 16 7 19 5 21 3 23v36l-3 27-3 17-1 2-15 5-12 8-7 9-5 13v15l2 11 6 10 5 6-9 15-10 14-14 15-10 9-15 10-16 7-15 4-7 1h-13l-12-11-11-14-1-6 5-10v-9l-4-9-8-7-6-4-4-10-3-3-2-9-1-11-1-28 2-26 5-30 6-25 10-30 12-25 7-12 12-17 14-15 14-11 14-8 12-5 16-4z" fill="#FDFDFD"/>
<path transform="translate(1221,492)" d="m0 0h10l11 4 5 4 3 3 11 2-2 2v16l-4 109-1 26-1 43-2 53-2 58-1 25-1 9-8 4-15 5-19 4-7 1h-38l-4-1-1 2v-2l-15-1-15-3-1-1v-6l3-12 22-108 2-9v-8l-16-5-21-5-1 5-11 21-16 25-12 18-13 21-12 21-3 6-1-2h-5v-2l-5-2-13-10 1-6 14-27 12-23 7-12 1-4-3-1 11-4 18-10 17-13 14-12 6-5 14-16-5-5-13-12-11-9-10-10 2-4 9-10 6-7h6l14-19 10-14 16-21 10-13 11-14 14-17 9-10 5-5 5-4z" fill="#CDE4EB"/>
<path transform="translate(1556,747)" d="m0 0 5 2 13 6 14 4 7 1 17 1h12l17-2 15-4 10-4 4-1 8 16 9 16 5 7 5 9 6 10 7 11 5 9 10 16 7 12 8 13 6 10 20 32 6 11 7 10 5 9 12 19v3h2l6 11 6 9 6 10 6 9-1 4-3 2 1 5 5 6 16 4 17 4 21 6v4l-13 3-20 2h-25l-9-3-5-4-8-12-4-2-2 1h-8l-5-4v-2l-4-2-53-53-7-8-20-20-7-8-32-34-7-8-12-13v-2l-2 1-4 17-4 12-6 21-4 9-10 7-15 10-18 13-13 10-14 11-13 11-11 9-13 12-7 6h-10l-3 3v2l22 6 14 3 9 3 2 1-1 3-9 2-10 1h-53l-11-4v-6l3-5h2l2-4 5-7 7-7v-3l-5-2v-4h2l2-5 13-15 24-24 8-7 12-11 11-9 8-7 11-9h2v-2l5-2 1-3v-28l-3-45-6-74z" fill="#023660"/>
<path transform="translate(1510,108)" d="m0 0 11 3 48 14 8 3-4 2-16 10-48 28-20 12-7 4-4 59-10 159-11 180-2 24-5 1-18-5-10-3-7 1-8 4-6-2-6-4-6-8-5-2v-13l6-76 13-170 6-76 6-75 1-10 23-15 24-15 11-7 21-13z" fill="#01A6DF"/>
<path transform="translate(957,125)" d="m0 0h18l26 3 22 5 24 8 14 6v1l-11 1-16-2h-21l-18 2-19 4-24 8-25 12-16 10-13 10-14 12-8 8-7 8-11 13-11 16-11 18-12 23-8 19-6 17-7 23-7 30-4 23-3 34v41l2 20 4 24 6 25 4 12 1 5h2l2 6v5l-5-5-9-11-14-21-11-19-12-25-12-33-3-4-16-2-15-7-16-1 2-9 3-7-1-5-8-9-5-9-3-8v-13l2-4 2-1v-5l-3-4v-9l5-10 6-7 11-7 13-5 6-1h15l2-10 6-19 9-24 14-29 12-20 12-17 14-17 20-20 14-11 21-14 19-10 21-8 17-5 22-4z" fill="#01A6DE"/>
<path transform="translate(1635,565)" d="m0 0h7l15 6 9 4-5 15 2 9 4 6 8 4h8l7-3 2-3h2l-1 8 10 3 25 11 13 5-2 1 2 4v4l-8 2h-35l-14-1-6 21-3 13-4 25-2 15v36l-4 3-19 6-11 2-11 1h-12l-17-1-14-3-12-4-10-5-3-2v-19l4-29 2-18-9 6-20 14-18 12-5 3-4-1-4-16-4-1 2-1-2-10-7-18-3-6v-4l15-9 20-14 38-28 18-13 23-15 19-10z" fill="#E0F2FA"/>
<path transform="translate(1032,243)" d="m0 0 8 1 20 4 13 5 13 7 11 10 5 5 8 9 10 16 8 16 5 15 4 24 1 11v47l-2 20-6 31-8 26-10 25-10 19-12 18-12 14-10 10h-2v2l-13 10-11 6-12 5-11 3-26 2-17-3-13-4-11-5-10-6-5-1v-1l24-4 14-4 16-8 13-9 12-11 11-12 11-16 7-12-6-7-5-9-2-11v-15l5-13 7-9 10-7 8-4 6-2h4l4-26 2-20v-36l-3-23-5-21-7-19-10-18-9-11-11-11z" fill="#026192"/>
<path transform="translate(234,411)" d="m0 0h19l20 6 13 1 10 5v2l4 2 5 7 2 6 1 19 3 9 7 6 9 7 4 5 3 9v11l-4 12-5 7 1 4 3-1v2l5 2v3l-7 2h-27l-20-3-19-5-11-1-14 5-6 7-2 9v31l3 36 4 30v4l-12 6-13 3h-9l-14-3-12-5-10-6-8-8-5-8-3-8-1-4v-9l3-7 6-7 7-3h5l-9-18-2-8v-18l4-9 4-5 7-3h11v-3l-4-2-4-5-2-4v-14l4-8 3-1v-2l10-5-6-7-1-7 4-11 7-9 8-6 3-2 7-1 2-11 4-9 7-8z" fill="#023761"/>
<path transform="translate(250,527)" d="m0 0 11 1 19 5 20 3h27l21-3 5-1 1 3-1 18 3 19 1 10-6 2-21 2 15 29 13 28 9 20 3 7 2 2-1 1 2 8-1 1h-20l-19 2-25 5-16 4-23 7-8 3h-3v2l-11 2-2-5-9-44v-7l-3-1h2l-4-26-3-29-1-15v-31l3-11 6-6z" fill="#CEE4EB"/>
<path transform="translate(696,446)" d="m0 0 10 3 6 2 1 5-5 9-1 5v10l4 18 7 19 11 26 14 27 11 17 2 9 6 36 2 14-6 7-18 6-21 4-8 1h-52v-2l-8-1-10-4-1-9 2-47 3-31 5-29 7-27 9-27 9-17 10-14 8-7z" fill="#CEE4EB"/>
<path transform="translate(1221,492)" d="m0 0h10l11 4 5 4 3 3 11 2-2 4h-4v16l-4 9-14 18-10 12-11 14-12 16-1 2h-2l-2 4-20 26-9 13-3 5h-2l-1 8-1 11-5 20-2 6-2-1-2 3h-2l-1-8-4 1v-2l-4 1-2-1v2h-2l-1 4-2 1v3l7 4 9 3 4 3v6l-1 2-8-1-16-4-15-4-1 5-11 21-16 25-12 18-13 21-12 21-3 6-1-2h-5v-2l-5-2-13-10 1-6 14-27 12-23 7-12 1-4-3-1 11-4 18-10 17-13 14-12 6-5 14-16-5-5-13-12-11-9-10-10 2-4 9-10 6-7h6l14-19 10-14 16-21 10-13 11-14 14-17 9-10 5-5 5-4z" fill="#E0F2FA"/>
<path transform="translate(555,490)" d="m0 0h2l-1 6-19 42-7 14-11 15-26 36-9 13-5-1-21-10-16-8h-2l-2 5-10 12-12 16-11 14-14 18-10 13-9-3-4-4-11-25-19-40-8-15v-2l26-4 1-8 15-4 19-7 21-10 17-10 10-7 13-10 10-9 8-7 2-3 6 1 35 17 7 3 5 1 2-4 2-3h2l2-5 6-8h2l1-4 7-8z" fill="#0274A9"/>
<path transform="translate(701,446)" d="m0 0 12 1 15 7 16 2 5 7 11 31 15 31 13 21 12 17 11 13 7 8 12 12 11 9 13 10 21 13 12 7 1 1 1 44 3 3h-4v9l-3 1-12-5-16-8-16-9-12-8-18-13-6-5-5-5-7-6v-2h-2l-12-12-4-5v-2h-2l-11-14-5-3v6h-1l-2-13-11-18-10-18-10-21-8-20-5-14-4-18v-10l3-9 3-5-1-5-10-2z" fill="#E0F2FA"/>
<path transform="translate(565,102)" d="m0 0 6 1 44 22 23 11 15 7-1 6-2 2h-2l-9 11-12 14-14 17-2 3-6-1-27-13-28-13-33-16-9-3-29 17-19 11-20 12-22 13-17 10-14 8-15 9-49 29-22 13-26 15-15 9-14 8-28 17-24 14-18 10-9 6v-3-1l-5 2 6-7 11-9 13-12 11-9 14-10 24-14 42-24 26-15 23-13 21-12 24-14 23-13 24-14 28-16 24-14 36-20 21-12 27-16zm-405 247 2 1-5 5-2-1z" fill="#01CAFB"/>
<path transform="translate(499,426)" d="m0 0 6 1 2 6-3 3v3l4 3 1 8v10l9 3 25 12 17 8 1 3-3 6-1-2-6 5-7 9-3 5h-2l-2 4-6 9-5 5-1 2-7-1-25-12-18-8h-3l-17 17-13 10-12 8-13 8-21 11-24 9-10 3h-5l-1 2-3-15-1-14 1-14-2-2 4 1 1 4 7-4 21-8 19-10 16-11 14-12 12-12 9-11 6-9v-5l-3-2v-2l-4-2-3-3 1-6 3-2 7 1 8 6 2 2 5-1 11-9z" fill="#01A6DF"/>
<path transform="translate(721,335)" d="m0 0h28l6 4 2 3v10l-3 3 2 4 5 6 4 4 4 10 2 9 2 14 2 7v20l-6 12-6 6-4 2-3 3-12 3h-10l-13-3-8-4-16-1 2-9 3-7-1-5-8-9-5-9-3-8v-13l2-4 2-1v-5l-3-4v-9l5-10 6-7 11-7z" fill="#023863"/>
<path transform="translate(1557,357)" d="m0 0 3 3 19 52 11 29 2 4 17 6 26 10 14 5v2l7 2v3l-22 13-13 8-10 6-19 11-14 8-17 10-14 8-2-4 2-34 1-22 1-8v-6l1-1 6-86z" fill="#0483BE"/>
<path transform="translate(1712,490)" d="m0 0h7l8 3 4 6 9-2h12l10 5 5 6-1 4-3 1 2 4 7 4v4h-7l3 5 3 3 1 3v16l-4 8-8 3-3 9-3 3-5-1-2-1v-2h-3v-6l1-4-9-13-1-2v-7l1-4-9-2-4-2-5 1-3 3-7 1-1 2v5l-7 6-6 1-3 5-9 1h-5l-1 1h-13l-8-6-3-4-4-10v-7l3-5 2-2 6-2v-11l3-6 4-5 8-5 8-2h8l7 4 2 3 3-1 1-2h2v-2z" fill="#02355F"/>
<path transform="translate(649,149)" d="m0 0 1 4-8 17-13 29-9 19-15 33-16 35-15 33-32 70-30 66-2 5h-1l-2-18-4-3 1-4 2-4-1-4h-2l-3-3 2-6 16-32 13-27 10-21 8-17 8-16 12-26 16-32 15-33 12-21 12-14 9-11 11-13z" fill="#026293"/>
<path transform="translate(250,527)" d="m0 0 11 1 19 5 20 3h27l21-3 5-1 1 3-1 18 3 19 1 10-6 2-23 3h-27l-20-2-17-4-16-6-12-9-6-5-2-6v-11l3-7 5-5z" fill="#E0F2FA"/>
<path transform="translate(1103,643)" d="m0 0 5 1 16 15 11 9-3 5-10 10-5 6-11 9-12 10-13 9-18 10-13 4-18 3h-9l-20-4-7-3-1-7-6-5 1-4 3-3-1-4-7-3-26-4v-1l14 1 12 2 2-5 3-2h6l10 6h2l-5-7 1-7 3-3 5 2 8 8 9 4 8-1 16-8 16-10 11-9 12-11 8-9z" fill="#01A6DF"/>
<path transform="translate(563,103)" d="m0 0 3 1-10 7h-2v2l-9 5-6 4-7 8-13 11-8 6 4 3 2 2-5-1-4-1-29 17-19 11-20 12-22 13-17 10-14 8-15 9-49 29-22 13-26 15-15 9-14 8-28 17-24 14-18 10-9 6v-3-1l-5 2 6-7 11-9 13-12 11-9 14-10 24-14 42-24 26-15 23-13 21-12 24-14 23-13 24-14 28-16 24-14 36-20 21-12 27-16zm-403 246 2 1-5 5-2-1z" fill="#01A6DF"/>
<path transform="translate(1562,311)" d="m0 0 4 2 7 10 13 21 26 44 15 26 10 17 12 20 7 13v4l-7-1-19-7-29-11-10-4-6-14-15-41-9-24-2-9-1-2v-22l2-18z" fill="#026091"/>
<path transform="translate(449,287)" d="m0 0 3 1-1 5-19 40-14 29-13 28-7 13-2 1-1-5v-8l-3-8-5-5-9-4h-13l-8 1-9-4-5 2-2 3-5-1-20-10v-2l16-9 25-15 24-14 26-15 22-13 16-9z" fill="#FCFDFD"/>
<path transform="translate(312,365)" d="m0 0 7 1 16 7 5 4 4 5 12 5v3l-8 7-7 8-2 1-1 7 2 2h6l6-4-5 10 1 5 7 2 2-4 3-1 2 7h7l5-5 3 4 7 1-3 9-5 11-2 6h-6l-28-14-15-6-7-3v-2l-6-1-6-3h-2l2 5 3 9 1 11v10l3 6 11 9 5 5 4 5 3 12-1 11-4 9-2 3 1 5 3 4-7-2v-3l-2-1 6-9 3-10v-11l-4-10-2-4-4-2-5-4-8-7-3-9-1-19-4-9-4-5-2-1v-2l-10-4-13-1-20-6h-19l-8 4-7 8-4 11-2 8-8 3-4 1 4-4 7-1 1-8 5-12 6-8 8-4 3-1h17l15 4h5v-2h-2l-1-2-14-7 1-4 11-6 9-6 8-4 10-6 17-10z" fill="#026091"/>
<path transform="translate(1512,109)" d="m0 0 16 4 48 14 1 2-7 3-20 12-17 10-24 14-20 12-7 4h-8l-22-6-30-7-2-2 4-5 14-7 10-7 36-22 17-11 9-6h2z" fill="#01CBFB"/>
<path transform="translate(1238,384)" d="m0 0h26l11 3 10 4 8 6 9 10 3 6v18l-14-4 3-3v-4l-12-2-18-6-19-9v19l-10 7-4 6-1 3v9l6 12 4 4-4 24-7-1-3-2-10-3-17-7-6-4v-19l3-20 5-16 6-11 9-10 9-6 8-3z" fill="#023660"/>
<path transform="translate(1428,621)" d="m0 0h8l10 8 8 4 6 10 5 11v8l4 1 12-4 7 1 7 16 6 18-1 4-16 7-17 5h-12l-12-4-8-6-10-10-12-16-7-14v-5l3-3 7 1 2 3-3-9-2-5-1-5-2-6 2-5h9z" fill="#01A6DF"/>
<path transform="translate(1720,531)" d="m0 0 12 6 1 1 2 10 2 6h2l2 4 3 3-1 4v14l-6 10-5 5-6 4-10 3-10 1h-11l1 8 1 2-4-1 1-8-7 6-4 1h-8l-8-4-4-5-3-9 2-9 3-6v-2l-2-2h4v-2l5-3 5-11 13 1h2v-2h2l2-5 8-4 4-5 2-5 7-3z" fill="#01A6DF"/>
<path transform="translate(271,453)" d="m0 0 4 2v2l5 2h13l5-1 6 18 2 7v16l-4 10-8 9-4 4h-2l1 8-1 4 11 1v1h-8l-24-5-12-3h-7v-12l-7-11-3-8v-6l5-7 3-11 1-11 3 1h10l6-4z" fill="#01A5DE"/>
<path transform="translate(1068,431)" d="m0 0 4 1-1 11 3 3v7l-4 9v3l31 6 4 2 1 5-4 4v10l-5 3 2 3-1 7-1 1-8 1-2 7-1 1h-9l-9-2-9-4-14-2-8-9-4-10-1-7v-15l5-13 7-9 10-7 8-4z" fill="#01A5DE"/>
<path transform="translate(886,634)" d="m0 0 4 2 1 3 14 6 9 3h7l9-3 10-8 6 1 2 5-4 8-2 2-1 4 10-2 9-6 5 1 4 4-2 5-7 6 16-4 5 3 1 4-3 5-4 1 2 8-3 5-11 5-7 1 1 3-31-3-23-6-13-5-2-2-1-44z" fill="#01A6DF"/>
<path transform="translate(742,364)" d="m0 0 5 1 6 11 5 9 4 4 4 6 1 10-6 9-5 5h-3v2l-6 3-3 3-14 4h-15l-2 6 2 1v7l4 5-6-2-16-1 2-9 3-7v-19l-1-3 2-12v-14h-2l-1-4 2-4 11-4 23-5z" fill="#01A5DE"/>
<path transform="translate(1115,694)" d="m0 0 1 2-1 4 2 1h-3l-1 5-11 21-16 25-12 18-13 21-12 21-3 6-1-2h-5v-2l-5-2-13-10 1-6 14-27 12-23 9-15 15-7h4l1-3 8-4 1-2 4-2 9-7h3v-2l6-3 2-4z" fill="#CDE3EB"/>
<path transform="translate(1245,403)" d="m0 0 5 1 14 7 18 6 12 3 1 4-3 2 12 4 2-1 3 5 4 6 1 4v9l-4 6-3 4-14 3-7-3-7-8-4-10v-2l-4 1-1 6-5 8-6 5-11 2-7-2-6-4-6-12v-9l3-6 5-6 7-4z" fill="#D2EEF7"/>
<path transform="translate(1220,742)" d="m0 0h12l1 5-2 22-3 18-4 11-6 9-5 4-3 1h-13l-10-5-5-8-2-7v-17l3-25 2-5 1-1z" fill="#E1F3FB"/>
<path transform="translate(891,491)" d="m0 0h1l2 9 4 5 4 9 9 6 6 7 2 6v9l-7 14-11 6-11 5-5 1h-8l-3-3-1-6h-7l-3-2-1-4 1-6-6-1-2-3v-6l4-3-1-5v-7l3-2h27l-1-7v-10l4-1z" fill="#01A6DF"/>
<path transform="translate(346,370)" d="m0 0 6 2 5 2 8-1h13l9 4 5 5 3 5 1 4v11h2l3-4-1 5-4 2v4h-2v3h-2l-1 5-3 6-5 6-7-1-3-2-4 5h-7l-2-2v-6l-5 5-7-1-2-2 1-7 4-6-5 4h-6l-3-3 1-7 3-1 2-4 11-11h2v-3l-10-3-6-5-1-3z" fill="#01A5DE"/>
<path transform="translate(1273,443)" d="m0 0h2l6 13 5 6 7 3 13-2v19l-7 6-7 3-9 1-5-1h-7l-8 3-2 11-11-1-8-7-11-4-6-1 2-4h5l3 1 3-22 1-6 9 3 11-2 7-6 4-8 1-4z" fill="#01A5DE"/>
<path transform="translate(1385,588)" d="m0 0 5 2 5 6v2l5 2 2 2 6 1 9-5 8 1 18 5 7 2h4l1-9h1l1 10 3 4 6 12 9 16 10 17 1 4-8 1-9 3-4-1-1-4-1-7-8-16-4-4-8-4-7-6h-8l-7 5-9-1-1 6 3 7-1 3-10-19-15-28-3-5z" fill="#0484BF"/>
<path transform="translate(1728,366)" d="m0 0h8l26 7 42 12-5 4-9 6-41 24h-3l-13-23-12-20-2-5 4-1z" fill="#01A6DF"/>
<path transform="translate(1557,357)" d="m0 0 3 3 19 52 11 29v5l-17 10-19 11-4 1 1-20 5-72z" fill="#FBFCFD"/>
<path transform="translate(1112,612)" d="m0 0 5 1v2l4 2 5 4v2l4 2 13 12 11 9 7 6v2h2l-2 5-9 8-6 8-8-4-3-1-5-5-14-13-11-9-10-10 2-4 9-10z" fill="#FCFDFD"/>
<path transform="translate(768,402)" d="m0 0 3 1 3 11v14l-6 12-5 7-4 2-3 3-12 3h-10l-13-3-7-7 1-7-3-1 2-7h16l16-4 1-3 6-2v-2l5-3 6-7 2-4h2z" fill="#023660"/>
<path transform="translate(555,490)" d="m0 0h2l-1 6-19 42-7 14-11 15-26 36-9 13-4-1v-3h2l1-3 5-5 6-14 4-8h2l1-4 1-3h2l1-5 6-14 4-10 7-14 7-10h2l2-5 6-8h2l1-4 7-8z" fill="#026697"/>
<path transform="translate(1730,597)" d="m0 0h4l7 11 7 12 5 9 2 1v2l7 1v2l-3 2h-5l-13-6-34-14-10-4-2-3-1-9h17l16-3z" fill="#026596"/>
<path transform="translate(1847,471)" d="m0 0h2l1 9-6 10-10 7-9 5h-2v22h-15l-11-18-1-5 15-9 19-11 15-9z" fill="#01A7E0"/>
<path transform="translate(423,587)" d="m0 0 4 1 5 5 9 1-1 5-11 14-14 18-10 13-14 18-10 13-5-1v-2h5l2-5 3-6 3-4 2-5 5-8 5-12 4-9 6-16 8-15z" fill="#026495"/>
<path transform="translate(1245,426)" d="m0 0h10l7 4 5 7 1 6-3 9-8 7-2 1h-10l-6-4-5-6v-14l1-2h2l1-4z" fill="#01A5DD"/>
<path transform="translate(1823,522)" d="m0 0 1 3 23 1 3 3-2 12-5 14-4 5-5-1-3-5-6-8-2-1v-3h-2l-1 2-11-19v-2l14 1z" fill="#E0F2FA"/>
<path transform="translate(1245,403)" d="m0 0 5 1 14 7 18 6 12 3 1 4-3 2 1 2-9 5-7 9-4-1-7-12-7-5-4-1h-11z" fill="#019DD5"/>
<path transform="translate(1294,431)" d="m0 0 7 1 4 4v23l-4 2h-9l-5-3-6-8-1-5 5-8 6-5z" fill="#019DD5"/>
<path transform="translate(742,364)" d="m0 0 2 1-2 2-25 6-12 3 1 15v35l11 2h13l12-3 4 1-8 3-8 2h-15l-2 6 2 1v7l4 5-6-2-16-1 2-9 3-7v-19l-1-3 2-12v-14h-2l-1-4 2-4 11-4 23-5z" fill="#026496"/>
<path transform="translate(1729,495)" d="m0 0 2 1v2l10-3h8l10 3 7 6 3 5-1 4h-2v2l5 1 3 3v6l-4 4 4 7v15l-4 9-6 5-3 3-3 7h-2v2l-7 2-5-3-2-3v-8l1-4v-2l-3-1-1-4h-2l-4-8-1-8-9-5h-4l-5 4-4 1-3 7-3 3-2-1 4-4v-6l2-2 7-1 4-4 6 1 11 4v11l7 11 3 4-2 10h3v2l9 1 3-11 9-4 3-7v-16l-3-5-4-5 1-2 7 1-1-4-8-5v-3l3-2-1-4-5-5-8-4h-12l-9 2z" fill="#026091"/>
<path transform="translate(1303,463)" d="m0 0h3v19l-7 6-7 3-9 1-6-2 1-4 6-2 3-6 3-1 2-5v-6z" fill="#023F6A"/>
<path transform="translate(1140,180)" d="m0 0 5 2 13 10 12 11 13 13 13 17 12 19 4 8v2l-3-1v-2h-2v-3h-2l-4-8-7-11-3-5-1-4-4-2v-2h-2l-7-8-3-3v-2l-4-2-14-14-3-2v-2l-4-1v-2l-4-1v-2l-4-2z" fill="#026EA1"/>
<path transform="translate(1685,490)" d="m0 0 9 2 5 4v2l4-4h2v2h-2l-2 4-3-1-5-5-3-1h-8l-9 3-7 4-5 7-1 3v11l-2 2-6 2-3 5v7l3 7v3l2 1 4 5 5 3h13l1-1h14l2-5 7-2 2 1-6 3-2 4h-2v2l-2 1h-7l-6-1-2 2h-10l-8-4-7-8-3-9v-11l5-6 6-1v-12l3-7 8-7 10-4z" fill="#026091"/>
<path transform="translate(1293,427)" d="m0 0 9 2h3l4 5 4 6 1 4v9l-4 6-4 4-2-4v-23l-3-3-7-1-9 1 5-5z" fill="#CEE4EB"/>
<path transform="translate(1284,432)" d="m0 0 5 1-6 8-2 4 1 5 6 8 4 2h9l3-1 2 4-11 3-7-2-7-6-4-8-2-7-4 1-1 4v-4h-2l-1 3v-10l3-3 3 5v2l4 1 2-4z" fill="#CFE5EC"/>
<path transform="translate(1510,108)" d="m0 0h2v3l-11 7-14 9-19 12-14 8-15 10-5 2 3-5 20-12 14-9 16-10 17-11z" fill="#01ABE3"/>
<path transform="translate(1243,427)" d="m0 0 3 1-3 19v10l-4-1-5-6v-14l1-2h2l1-4z" fill="#013E69"/>
<path transform="translate(1297,432)" d="m0 0 7 2 1 2v23l-4 2h-7l1-2h2z" fill="#023F6B"/>
<path transform="translate(1205,405)" d="m0 0 1 2-6 13-4 16-2 15v19l12 6 15 6 7 2 4 3-7-1-29-11-6-4 1-21 3-18 5-16z" fill="#026091"/>
<path transform="translate(271,451)" d="m0 0 5 3 4 3 4 1 10-2 4-1 4 6v2h2l2 5 1 1v11l1 4v12l-3 9-2 2 1-5 1-3v-16l-2-7-5-16v-2l-5 2h-13l-5-3-2-3-3 1-6 7-3-1 6-5z" fill="#02699C"/>
<path transform="translate(1802,386)" d="m0 0 4 1 17 29 15 25-1 4-1-3h-2l-9-16-5-9-6-8-6-12-4-6-3-3z" fill="#0271A3"/>
<path transform="translate(288,520)" d="m0 0 3 1-3 1 1 8-1 4 11 1v1h-8l-24-5-4-3v-2h7l2 1h10l2-1 2-5z" fill="#048DC6"/>
<path transform="translate(1719,530)" d="m0 0 6 1 11 4v11l7 11 3 4-3 12h-1v-8l1-4v-2l-3-1-1-4h-2l-4-8-1-8-9-5h-4l-5 4-4 1-3 7-3 3-2-1 4-4v-6l2-2 7-1z" fill="#026CA1"/>
<path transform="translate(765,372)" d="m0 0 2 1 4 15 2 14 2 7v20l-6 12-4 3 8-16v-14l-3-11-2-1-1 3-1-8 2-3v-9l-3-10z" fill="#02699D"/>
<path transform="translate(1685,490)" d="m0 0 9 2 5 4v2l4-4h2v2h-2l-2 4-3-1-5-5-3-1h-8l-9 3-7 4-5 7-1 3v11l-2 2-6 2-3 5v10l-2-1v-11l5-6 6-1v-12l3-7 8-7 10-4z" fill="#026091"/>
<path transform="translate(1077,761)" d="m0 0 1 3-14 22-14 24-4 8-1-2h-5l4-2 6-11 7-11 8-13 10-15z" fill="#DDF0F7"/>
<path transform="translate(1070,460)" d="m0 0 3 4 27 5 6 3 1 1v6l-2 3-2 11-2 2v6l-2 2-3-9 5-2v-10l4-4v-5l-35-7-1-4z" fill="#037AB2"/>
<path transform="translate(702,431)" d="m0 0 3 3 6 10 2 1v2h-16l2-9z" fill="#0391CA"/>
<path transform="translate(1303,463)" d="m0 0h3v19h-1l-1-8-8 1-2-2-1 2-2-1 1-6v-2z" fill="#0175A6"/>
<path transform="translate(1305,436)" d="m0 0 4 1 2 8-1 11-2 5-2 2-2-4z" fill="#E0F2FA"/>
<path transform="translate(1190,228)" d="m0 0 4 2 11 17 7 13v2l-3-1v-2h-2v-3h-2l-4-8-7-11-3-5z" fill="#0271A3"/>
<path transform="translate(1109,709)" d="m0 0 1 3-8 15-16 25-6 8-1-3 8-11 11-18 3-6 2-6z" fill="#DCEFF6"/>
<path transform="translate(1056,436)" d="m0 0 1 3-10 8-9 12-2 6-2-2 1-6 6-10 8-7z" fill="#048DC6"/>
<path transform="translate(948,641)" d="m0 0 1 4-1 3 12 1-5 4-7 4h-7l1-5 4-6z" fill="#0584BF"/>
<path transform="translate(1090,710)" d="m0 0m-2 1 2 1-2 4-5 4-5 2-1 2-13 5-7 3v-2l-3-1 11-4 18-10z" fill="#DDEFF7"/>
<path transform="translate(911,555)" d="m0 0 3 1-1 2-4 2-7 6-13 4-12-1v-1l13-2 17-8z" fill="#0483BE"/>
<path transform="translate(742,364)" d="m0 0 2 1-2 2-25 6-12 3v10h-2v-3h-2l-1-4 2-4 11-4 23-5z" fill="#026698"/>
<path transform="translate(1562,467)" d="m0 0 5 1-2 7-11 3-3-6z" fill="#01A6DF"/>
<path transform="translate(563,103)" d="m0 0 3 1-10 7h-2v2l-9 5-9 6h-3v-3l27-16z" fill="#027FB4"/>
<path transform="translate(1282,456)" d="m0 0 4 2 6 2h9l3-1 2 4-11 3-7-2-6-5z" fill="#DBEEF6"/>
<path transform="translate(1126,843)" d="m0 0 1 4 2 1 1 3 11 3 5 2v1h-12l-9-2-1-1v-6z" fill="#D3EFF9"/>
<path transform="translate(1664,282)" d="m0 0 4 1 15 26-1 4-7-10-4-8-5-8z" fill="#0272A4"/>
<path transform="translate(977,681)" d="m0 0 1 3v6l-7 3-10 1v2l-5-1v-2l12-4 6-3z" fill="#0584BF"/>
<path transform="translate(937,638)" d="m0 0 2 1-11 8-7 2h-7l-19-7 4-1 17 5 13-2z" fill="#0584BF"/>
<path transform="translate(1510,108)" d="m0 0h2v3l-11 7-14 9-2-1 5-5 14-9z" fill="#01AAE2"/>
<path transform="translate(1143,758)" d="m0 0h2l1 2v6l-2 5h-2l1 5-1 7-1 2h-2v-7z" fill="#DDEFF7"/>
<path transform="translate(505,428)" d="m0 0h2l1 6-2 5 4 1 1 12 2 1-3 7h-1l-2-18-4-3 1-4 2-4z" fill="#0381B8"/>
<path transform="translate(1293,427)" d="m0 0 9 2h3l1 4-12-1-9 1 5-5z" fill="#DCEFF7"/>
<path transform="translate(168,345)" d="m0 0v3l-2 5-8 5-3-1-7 6-2-1 8-7 5-3z" fill="#0488C2"/>
<path transform="translate(336,409)" d="m0 0 2 4 2 2h6l6-4-5 10 1 5 6 2v1l-7-1-3-4 1-4-5-2-4-4z" fill="#037CB4"/>
<path transform="translate(330,586)" d="m0 0h15l-4 2-3 1v6l-3 2-5-9z" fill="#016697"/>
<path transform="translate(441,535)" d="m0 0v3l-7 4h-2v2l-10 6-11 6-3-1 18-10 10-7z" fill="#0584BF"/>
<path transform="translate(1811,525)" d="m0 0h6l2 4v7h-4l-4-7z" fill="#F8FBFC"/>
<path transform="translate(726,455)" d="m0 0 18 1v4l-1 1-7-1-10-4z" fill="#F6FAFC"/>
<path transform="translate(1700,548)" d="m0 0 2 1-6 3-2 4h-2v2l-2 1h-7l-3-2 6-2h5l2-5z" fill="#026A9E"/>
<path transform="translate(1567,749)" d="m0 0 6 1 8 4v2h-7l-8-4z" fill="#FAFCFD"/>
<path transform="translate(1642,244)" d="m0 0h3l11 19-1 4-9-14-1-5h-2z" fill="#0270A3"/>
<path transform="translate(1e3 686)" d="m0 0h1l2 7 5 7-4-1-10-6-6-1v-1h11z" fill="#0584BF"/>
<path transform="translate(1055,797)" d="m0 0 1 3-8 14-3 4v-2h-5l4-2 6-11z" fill="#DFF1F9"/>
<path transform="translate(1269,434)" d="m0 0 3 3 1 4 3 1-3 2h-2l-1 4v-4h-2l-1 3v-10z" fill="#CEE4EB"/>
<path transform="translate(1653,571)" d="m0 0 7 1 5 2-2 4-4 2-3-3z" fill="#F7FAFB"/>
<path transform="translate(888,142)" d="m0 0 3 1-19 10-5 2 1-3 17-9z" fill="#0492CB"/>
<path transform="translate(393,562)" d="m0 0 3 1-14 6-13 5-4 1-3-2 27-9z" fill="#0584BF"/>
<path transform="translate(472,507)" d="m0 0 6 1 4 3-17 4 6-7z" fill="#0584BF"/>
<path transform="translate(968,656)" d="m0 0 1 4h5l1 2-13 4-3-1 8-7z" fill="#0584BF"/>
<path transform="translate(1695,335)" d="m0 0h3l9 15v2l-4-2-7-11z" fill="#0270A3"/>
<path transform="translate(1243,427)" d="m0 0 3 1-3 19v10l-3-1 1-1v-12l1-9z" fill="#026B9F"/>
<path transform="translate(1620,203)" d="m0 0 4 5 6 10v2l-3-1v-2h-2l-6-11z" fill="#0277A9"/>
<path transform="translate(1260,497)" d="m0 0h1v8l-7-1v-2h-2v-2z" fill="#0489C3"/>
<path transform="translate(1289,433)" d="m0 0 4 1-8 7-3 8-2-1 1-5 4-6z" fill="#03A0D6"/>
<path transform="translate(1109,709)" d="m0 0 1 3-7 13-2-2 2-7z" fill="#DDF0F8"/>
<path transform="translate(1692,599)" d="m0 0 10 1-4 2h-3l1 8 1 2-4-1 1-8-3 2h-3v-2z" fill="#038CC4"/>
<path transform="translate(856,545)" d="m0 0 7 2v6l-3 1-4-4z" fill="#0584BF"/>
<path transform="translate(987,694)" d="m0 0h1v5l-1 1h-10l-18-3v-1l14 1 12 2z" fill="#039AD2"/>
<path transform="translate(1797,610)" d="m0 0h2l-1 4-11 6v-4h2l1-3z" fill="#0272A5"/>
<path transform="translate(351,532)" d="m0 0 3 1-2 7-4-1-2-2v-3z" fill="#F3F9FB"/>
<path transform="translate(1303,463)" d="m0 0h3l-2 6h-2l-1 2-6-2-1-2 8-3z" fill="#01416B"/>
<path transform="translate(1628,220)" d="m0 0h3l7 12v2h-3v-2h-2l-5-10z" fill="#0274A6"/>
<path transform="translate(563,103)" d="m0 0 3 1-10 7h-2v2l-4 1-2-2z" fill="#029CD3"/>
<path transform="translate(1073,424)" d="m0 0h1v22l-1-2-3-1 1-11z" fill="#0382B9"/>
<path transform="translate(880,633)" d="m0 0 6 1 1 1v6l-4-1-3-5z" fill="#FBFCFD"/>
<path transform="translate(1070,460)" d="m0 0 3 4 17 3v1h-11l-9-2-1-4z" fill="#037AB1"/>
<path transform="translate(1239,461)" d="m0 0 5 3-4 4-3 19h-1v-7l3-17z" fill="#0271A4"/>
<path transform="translate(649,149)" d="m0 0 1 4-4 8-1-3-3 1 2-4z" fill="#0272A4"/>
<path transform="translate(742,364)" d="m0 0 2 1-2 2-11 3h-8l3-2z" fill="#026698"/>
<path transform="translate(1811,602)" d="m0 0m-4 1h4l-1 4-7 4h-2l2-4z" fill="#0271A4"/>
<path transform="translate(1708,535)" d="m0 0h6v2l-4 1-3 7-3 3-2-1 4-4v-6z" fill="#02699C"/>
<path transform="translate(428,295)" d="m0 0h2l-1 3-12 7h-2l1-3z" fill="#027AAD"/>
<path transform="translate(1588,151)" d="m0 0 3 1 6 10-1 4-5-7-1-5h-2z" fill="#0271A3"/>
<path transform="translate(1137,787)" d="m0 0h2l1 9-2 3h-2v-7z" fill="#DDF0F8"/>
<path transform="translate(1738,586)" d="m0 0 1 3-2 3h-2v2l-5 4-9 2 2-2 8-4 3-1 2-4z" fill="#047EB7"/>
<path transform="translate(1256,421)" d="m0 0 5 1 10 9 1 3h-3l-5-7-8-5z" fill="#038AC1"/>
<path transform="translate(861,156)" d="m0 0 4 1-6 4-7 4h-2v2h-2l1-3z" fill="#048FC8"/>
<path transform="translate(214,304)" d="m0 0h2v3l-10 6h-2v-2z" fill="#048DC6"/>
<path transform="translate(1602,176)" d="m0 0 4 1 5 9v2l-4-2-4-8z" fill="#0278AB"/>
<path transform="translate(1445,149)" d="m0 0 2 1-5 5-6 4-2-1 5-5z" fill="#01AEE5"/>
<path transform="translate(288,520)" d="m0 0 3 1-3 1 1 8-2 4-1-1v-12z" fill="#026395"/>
<path transform="translate(1102,486)" d="m0 0h1v7l-2 2v6l-2 2-3-9 5-2z" fill="#037DB5"/>
<path transform="translate(555,490)" d="m0 0h2l-1 6h-3l-6 5 2-4z" fill="#0279AE"/>
<path transform="translate(1226,487)" d="m0 0h10l-1 3-8-1-2 3-7 1 1-2 5-2z" fill="#0384BC"/>
<path transform="translate(148,363)" d="m0 0v3l-4 7-4 2 2-6 5-5z" fill="#0272A4"/>
<path transform="translate(1688,319)" d="m0 0 4 5 3 5v2l-3-1-5-7z" fill="#0279AC"/>
<path transform="translate(1054,145)" d="m0 0 7 2v1l-11 1-9-1v-1h13z" fill="#048DC7"/>
<path transform="translate(1141,775)" d="m0 0 2 1-1 7-1 2h-2v-7z" fill="#DFF1F9"/>
<path transform="translate(1419,654)" d="m0 0 2 3 2 5v3l-3-1-3-6z" fill="#0FCDFA"/>
<path transform="translate(1834,589)" d="m0 0h5l-4 3-9 5v-3z" fill="#0280B3"/>
<path transform="translate(1719,530)" d="m0 0 6 1 4 2v2l-5-1-4-2-4 4-2-1z" fill="#026CA1"/>
<path transform="translate(1303,459)" d="m0 0 3 3-3 2-9-2v-1z" fill="#A9DFEE"/>
<path transform="translate(505,428)" d="m0 0h2l1 6-1 5v3l-4-3 1-4 2-4z" fill="#037AB2"/>
<path transform="translate(702,376)" d="m0 0h2l1 10h-2v-3h-2l-1-4z" fill="#026A9D"/>
<path transform="translate(1151,725)" d="m0 0 2 3v5l-4 2v-7z" fill="#DEF1F9"/>
<path transform="translate(1e3 692)" d="m0 0 5 2 4 6-4-1-5-5z" fill="#037CB4"/>
<path transform="translate(1775,625)" d="m0 0 2 1-10 6h-2l1-3 5-3z" fill="#0280B3"/>
<path transform="translate(1817,599)" d="m0 0h5l-4 3-5 3h-2l2-4z" fill="#027EB1"/>
<path transform="translate(829,592)" d="m0 0 7 6 1 2-4-1-6-5z" fill="#0278AB"/>
<path transform="translate(400,398)" d="m0 0 1 3-3 4h-2v4h-2l-1 3v-6l1-2 4-2z" fill="#0491CA"/>
<path transform="translate(538,118)" d="m0 0 3 1v2l-5 3h-3v-3z" fill="#0486C1"/>
</svg>
