<?xml version="1.0" encoding="UTF-8"?>
<svg version="1.1" viewBox="0 0 1400 880" width="1280" height="1280" xmlns="http://www.w3.org/2000/svg">
<path transform="translate(0)" d="m0 0h1400v880h-1400z" fill="#F8F8F8"/>
<path transform="translate(892,47)" d="m0 0h32l38 1 65 1h228l60-2h24v12l-2 21-3 54v63l2 33-1 5h-19l-3-20-5-36-5-27-6-21-8-18-9-13-9-9-14-9-14-6-15-4-23-3-11-1h-98l-18 3-12 6-5 4-7 11-3 9-3 27-1 144-4 1h-35l-44-1-1-154-2-16-3-10-7-11-8-7-10-4-14-3-23-2-4-2-1-9z" fill="#010101"/>
<path transform="translate(557,46)" d="m0 0h2v18l-4 1-25 2-13 3-9 5-5 5-4 9v18l6 25 8 24 16 50 18 56 2 6v4l-55 1h-32l-2-1-15-46-3 7-11 36-2 3h-20l13-42 11-35-1-7-22-67-9-21-7-12-6-7v-2l-4-2-8-6-12-5-6-2-1-5 1-12 33 1 62 1h22l45-1z" fill="#010101"/>
<path transform="translate(35,46)" d="m0 0 10 1 27 1h125l31-2v17l-4 2-20 4-10 5-5 5-4 9v17l5 22 8 26 12 36 16 49 10 30v4h-89l-25-75-14-41-13-38-10-21-9-12-10-9-9-5-10-4-11-2-1-1z" fill="#010101"/>
<path transform="translate(964,459)" d="m0 0h83l1 138 3 27 5 14 6 8 8 7 11 5 10 3 18 2 28 2 1 1 1 9-2 7h-29l-24-1-46-1h-50l-72 2h-24v-16l1-1 30-3 15-4 9-5 6-7 6-12 3-13 1-11z" fill="#010101"/>
<path transform="translate(524,459)" d="m0 0h86l4 10 13 41 9 27 1 1 16-51 7-22 2-6h24l-3 11-15 49-35 112-17 55-1 1h-14l-4-10-27-81-14-41-30-89z" fill="#010101"/>
<path transform="translate(211,459)" d="m0 0h87l4 9 11 35 12 34 1 2 12-40 12-39 2-1h19l-1 6-21 69-14 45-17 55-15 49-3 4h-12l-3-5-12-36-24-71-21-63-14-41-3-9z" fill="#010101"/>
<path transform="translate(685,46)" d="m0 0 48 2 47 1h18l32-1 26-2v16l-4 4-13 5-12 7-11 9-8 10-7 11-7 12-10 27-17 54-18 58-4 12-1 1h-22l13-42 14-44 8-32 4-22v-20l-2-10-4-11-7-9-10-7-13-5-16-3-24-3z" fill="#010101"/>
<path transform="translate(421,328)" d="m0 0h8l3 4 9 24 10 27v2l2-1 13-36 7-20h9l4 22 6 43-1 5-8-1-5-31-3-20-2 2-10 30-7 18-2 2-7-1-4-8-12-32-5-11-4 30-3 21-4 1-3-1 1-14 7-54z" fill="#010101"/>
<path transform="translate(345,333)" d="m0 0 9 1 8 5 5 8 2 7v19l-4 10-5 5-7 4h-11l-8-4-6-9-3-9v-14l4-12 6-7 6-3z" fill="#F8F8F8"/>
<path transform="translate(1166,333)" d="m0 0 9 1 7 4 5 6 3 8 1 4v15l-4 11-6 7-7 3h-11l-8-5-6-9-2-6v-18l4-11 4-5 7-4z" fill="#F8F8F8"/>
<path transform="translate(189,328)" d="m0 0h6l3 2 17 51 2 2 12-39 4-15 1-1h6l3 3 12 38 4 13v2h2l3-11 11-34 3-10 1-1h5l1 3-6 20-12 36-4 10-1 1-7-1-4-8-11-37-2-7-2-1-4 16-12 36-2 2-6-1-3-4-17-50-4-11z" fill="#010101"/>
<path transform="translate(849,328)" d="m0 0h7l3 3 21 53 4 10v4l-8-1-3-4-6-15-30-1-3 10-4 9-5 2-2-1 1-7 13-33 11-28z" fill="#010101"/>
<path transform="translate(612,328)" d="m0 0h6l8 9 26 36 4 6 1-1v-49l1-1h5l1 1 1 16v53l-6-1-9-11-10-14-14-19-5-7-1 33-1 18h-7z" fill="#010101"/>
<path transform="translate(1238,327)" d="m0 0 7 2 13 17 13 18 11 15 1-51h7l1 67-1 3-6-1-10-13-12-17-14-19-1-3h-2v52h-8v-69z" fill="#010101"/>
<path transform="translate(1163,328)" d="m0 0h13l10 4 7 6 5 8 3 13-1 13-4 10-7 8-7 5-6 2-10 1-9-2-10-6-6-8-3-8-1-5v-11l4-13 4-6 7-7zm3 5-8 3-5 5-4 6-2 7v18l4 10 6 7 6 3h11l8-4 6-8 3-9v-15l-3-10-4-6-6-5-7-2z" fill="#010101"/>
<path transform="translate(343,328)" d="m0 0h11l11 4 5 4 6 9 3 12v13l-4 12-8 9-10 5-3 1h-15l-9-4-8-7-5-10-1-4v-16l4-12 6-8 9-6zm2 5-8 3-6 5-4 8-2 7v14l4 11 5 7 8 4h11l9-5 6-10 1-4v-19l-4-11-5-6-10-4z" fill="#010101"/>
<path transform="translate(999,328)" d="m0 0h8l1 1 1 30 34 1v-30l2-2h6l1 1v68h-8l-1-7v-25l-34 1-1 31-5 1-3-1-1-2z" fill="#010101"/>
<path transform="translate(528,328)" d="m0 0h46l-1 5-35 1v25l34 1-1 5h-33l-1 27h38v5l-7 1-39 1-1-3z" fill="#010101"/>
<path transform="translate(932,328)" d="m0 0h14l10 5 4 5-2 5h-5l-5-6-4-2h-11l-5 3-2 4v6l3 5 13 6 11 5 7 6 2 6v7l-4 7-6 5-11 3h-7l-10-3-7-4-1-7 3-3 4 1 3 4v2l4 2 3 1h10l6-3 3-5v-7l-4-5-24-11-5-5-3-6 1-9 4-6 8-5z" fill="#010101"/>
<path transform="translate(753,328)" d="m0 0h43l-1 5-33 1-1 24h32v5l-16 1h-15l-1 33h-8l-1-68z" fill="#010101"/>
<path transform="translate(1196,459)" d="m0 0h22l1 12 1 27-1 1h-19l-2-9-3-27z" fill="#010101"/>
<path transform="translate(490,803)" d="m0 0 9 1 5 5 3 9v9l-4 2-20 1 1 11 5 5h6l5-3 4-7h3l-3 9-5 4-3 1h-8l-5-3-4-6-1-4v-21l4-9 4-3z" fill="#020202"/>
<path transform="translate(424,803)" d="m0 0h7l7 4 3 7 1 11-1 3-4 1h-20l2 11 5 6h7l5-5 4-6 2 1-3 9-8 5h-9l-6-5-3-8v-19l3-10 5-4z" fill="#010101"/>
<path transform="translate(890,803)" d="m0 0 8 1 5 5 2 8v29l-8 3-3 1h-8l-6-4-3-8 1-8 5-5 10-2h8l-2-11-3-4-5-1-6 4-4 4h-2l1-6 5-4z" fill="#010101"/>
<path transform="translate(1116,803)" d="m0 0h7l7 4 3 6 1 12-1 3-8 1h-16l2 12 5 5h7l5-5 4-6h1v7l-5 6-4 2h-9l-6-4-3-6-1-4v-18l3-10 5-4z" fill="#010101"/>
<path transform="translate(719,791)" d="m0 0 4 1 8 38 3 11 7-35 3-13 5-1 6 25 4 21 1 1 6-27 4-19 1-2h4l-4 20-8 36-4 2-2-1-9-40-1-10h-2l-1 14-6 30-2 6h-5l-9-39-3-14z" fill="#010101"/>
<path transform="translate(613,804)" d="m0 0h11l6 5 2 5 1 12-1 2-6 1h-18l2 11 2 4 4 2h6l5-4 4-7h1v7l-4 5-6 3h-9l-6-5-2-4-1-6v-14l2-10 5-6z" fill="#010101"/>
<path transform="translate(313,791)" d="m0 0 3 1 7 33 3 16 4-16 5-23 2-9 4-2 2 5 8 36 3 9 7-39 3-10 3-1-1 9-10 47-1 1h-5l-10-46-1-1-8 40-2 7h-5l-5-21-7-34z" fill="#010101"/>
<path transform="translate(790,807)" d="m0 0h7l5 4 2 6v19l-3 7-5 4h-6l-5-5-2-7v-18l3-7z" fill="#F8F8F8"/>
<path transform="translate(833,803)" d="m0 0 6 1 7 7 4-6 4-2h6l6 5 2 8v32h-4l-1-33-3-7-5-1-6 4-3 7-1 30-4-1v-31l-4-8-5-1-6 4-2 4-1 33h-5v-42l3-1 1 2 6-2z" fill="#010101"/>
<path transform="translate(1092,328)" d="m0 0h6l2 1 1 5v63h-9z" fill="#010101"/>
<path transform="translate(1203,245)" d="m0 0h13l1 1-1 24-1 2h-21l1-16 1-9z" fill="#010101"/>
<path transform="translate(984,789)" d="m0 0h7l6 4 4 5 2 6-2 1-3-3-5-7-2-1h-7l-5 4-1 2v6l4 6 12 8 5 4 4 6v9l-4 7-8 4h-8l-6-4-4-6v-6h2l5 9 6 3h5l5-4 2-4-1-9-8-7-11-7-4-5-1-3v-7l4-7z" fill="#010101"/>
<path transform="translate(538,791)" d="m0 0h25v4l-21 1v20l20 1v4h-20v20l1 3h22v3l-2 1h-25l-1-10v-46z" fill="#010101"/>
<path transform="translate(377,787)" d="m0 0h2l2 21 6-4 7-1 5 2 3 6 1 4v33h-4l-1-34-3-6-6-1-6 4h-2l-1 37h-4v-60z" fill="#010101"/>
<path transform="translate(791,803)" d="m0 0 9 1 5 4 2 4 1 6v18l-2 7-4 5-5 2h-8l-6-4-3-5-1-4v-19l3-10 5-4zm-1 4-5 4-2 6v18l3 9 4 3h6l6-5 2-6v-19l-3-7-4-3z" fill="#010101"/>
<path transform="translate(851,340)" d="m0 0 4 4 10 27-1 1h-24l1-6 8-21z" fill="#F8F8F8"/>
<path transform="translate(1014,787)" d="m0 0 2 1 1 21h2l2-4 5-2 8 1 4 6 1 3 1 35h-4l-1-31-2-7-4-3-5 1-6 4-1 12-1 25-3-1v-60z" fill="#010101"/>
<path transform="translate(928,804)" d="m0 0h10l4 4 2 9v31l-4-1-1-33-3-6h-7l-6 3-1 4-1 33h-4v-43h2l3 3 3-3z" fill="#010101"/>
<path transform="translate(1082,803)" d="m0 0 7 1 4 5 2 11v19l-1 9h-3l-1-31-3-9-5-1-8 4-2 8-1 29h-4v-43l4 1 2 2 5-4z" fill="#010101"/>
<path transform="translate(1151,803)" d="m0 0 9 1 5 4 2 4v5l-9-9-5-1-5 3-2 3 1 6 10 6 7 4 4 5v8l-6 7-3 1h-9l-7-6-2-5v-3l4 2 4 6 3 2h6l5-5v-6l-4-4-12-6-5-5v-9l3-5z" fill="#010101"/>
<path transform="translate(694,804)" d="m0 0h1l-1 9-13 45-4 6-3 2h-5l2-4 4-2 4-11-1-9-10-30v-5l3 1 7 21 3 12 3-7 6-21 3-6z" fill="#010101"/>
<path transform="translate(888,827)" d="m0 0h12l1 1v12l-3 5-4 2-8-1-4-5-1-2v-6l4-5z" fill="#F8F8F8"/>
<path transform="translate(489,807)" d="m0 0h7l5 4 2 5v8l-1 1h-20v-10l3-5z" fill="#F8F8F8"/>
<path transform="translate(1118,806)" d="m0 0 7 2 4 5 1 4v7l-1 1h-20v-10l4-6z" fill="#F8F8F8"/>
<path transform="translate(615,807)" d="m0 0h7l5 4 2 6v7l-1 1h-20v-9l3-6z" fill="#F8F8F8"/>
<path transform="translate(424,807)" d="m0 0h7l5 4 2 6v7l-1 1h-20v-10l4-6z" fill="#F8F8F8"/>
<path transform="translate(569,805)" d="m0 0 5 1 8 31 2 4 7-26 3-9 4-1-4 16-7 25-3 3-3-2-5-16z" fill="#010101"/>
<path transform="translate(654,804)" d="m0 0h9l1 3-10 2-5 4-1 7-1 28h-4v-43l4 1 2 3z" fill="#010101"/>
<path transform="translate(467,803)" d="m0 0 5 1v3l-10 2-4 2-1 19v19l-4-1v-43l3 1 1 2h2l4-4z" fill="#010101"/>
<path transform="translate(1051,805)" d="m0 0h4v43h-4z" fill="#010101"/>
<path transform="translate(1051,790)" d="m0 0 5 1v4h-5l-1-4z" fill="#010101"/>
</svg>
